<svg width="18" height="18" fill="none" xmlns="http://www.w3.org/2000/svg"><g clip-path="url(#clip0)"><path d="M7.593 18v-6.328H5.314V9.056h2.27c.037-1.94-.342-4.138 1.762-5.178 1.116-.556 2.528-.297 3.672-.157v2.226c-.978 0-1.827-.139-2.334.51-.388.492-.259 1.856-.259 2.599h2.491l-.396 2.616-2.104.01V18c.25 0 .655-.12.877-.176.295-.075.544-.158.83-.26.95-.325 1.965-.956 2.713-1.587a8.945 8.945 0 001.319-1.391c.932-1.262 1.531-2.59 1.771-4.166.037-.26.065-.53.083-.79V8.463a8.85 8.85 0 00-.618-2.756 8.9 8.9 0 00-1.522-2.542c-.056-.065-.074-.074-.139-.149-.258-.324-.544-.556-.812-.807l-.904-.714a9.014 9.014 0 00-3.035-1.3A9.901 9.901 0 009.319 0H8.69a8.919 8.919 0 00-1.642.195 9.925 9.925 0 00-1.623.529c-.49.213-.95.464-1.393.751l-.766.576a8.851 8.851 0 00-1.9 2.161c-.323.52-.314.539-.573 1.058-.156.38-.304.78-.424 1.178A8.042 8.042 0 000 8.49v1.03c.028.575.11 1.15.25 1.716a8.17 8.17 0 00.553 1.596c.286.575.378.826.793 1.392.627.872.775 1.002 1.532 1.707.046.037.092.083.138.111.065.047.083.074.148.13.11.093.203.158.323.241.913.631 1.845 1.123 2.943 1.392.249.065.664.195.913.195z" fill="#000"/></g><defs><clipPath id="clip0"><path fill="#fff" d="M0 0h18v18H0z"/></clipPath></defs></svg>