<svg width="18" height="18" fill="none" xmlns="http://www.w3.org/2000/svg"><g clip-path="url(#clip0)"><path d="M2.688 6.759H5.34v8.571H2.688V6.76zm6.966 4.543v4.028H7.026V6.76h2.53v1.188c.122 0 .061-.037.232-.27.037-.049.074-.098.11-.134.05-.05.061-.086.11-.135a2.94 2.94 0 012.126-.857c.856 0 1.662.183 2.237.734l.122.123a.602.602 0 01.11.135c.403.538.55 1.053.66 1.824.06.637.085 1.274.085 1.923v4.065h-2.664v-4.519c0-.624-.073-1.42-.623-1.775-.318-.208-.586-.184-.94-.184-.319 0-.624.11-.868.319a.578.578 0 00-.123.122 1.532 1.532 0 00-.195.294c-.232.44-.281 1.029-.281 1.69zM5.56 4.028c0 .404-.171.796-.452 1.078a1.54 1.54 0 01-2.175.049 1.547 1.547 0 01-.037-2.18l.037-.036c.098-.098.195-.184.318-.245a1.525 1.525 0 012.101.575c.135.233.208.502.208.76zM0 1.506V16.48c0 .466.049.71.306 1.053.232.27.55.441.904.466h15.53c.196 0 .38-.05.538-.147.55-.282.709-.772.709-1.372V1.506a1.654 1.654 0 00-.073-.6 1.303 1.303 0 00-1.15-.894H1.223C.733 0 .244.379.073.882A1.823 1.823 0 000 1.505z" fill="#000"/></g><defs><clipPath id="clip0"><path fill="#fff" d="M0 0h18v18H0z"/></clipPath></defs></svg>