<svg width="18" height="18" fill="none" xmlns="http://www.w3.org/2000/svg"><g clip-path="url(#clip0)"><path fill-rule="evenodd" clip-rule="evenodd" d="M6.004 9.005a2.997 2.997 0 013.001-3.001 2.997 2.997 0 013.002 3.001 2.997 2.997 0 01-3.002 3.002 3.004 3.004 0 01-3.001-3.002zm-1.63 0a4.621 4.621 0 109.242 0 4.621 4.621 0 00-9.242 0zm8.351-4.813c0-.6.483-1.083 1.083-1.083s1.083.482 1.083 1.083c0 .6-.482 1.083-1.083 1.083a1.08 1.08 0 01-1.083-1.083zM5.36 16.328c.944.043 1.233.053 3.635.053 2.401 0 2.69-.01 3.634-.053.88-.043 1.35-.183 1.672-.311a2.77 2.77 0 001.04-.676c.311-.31.515-.61.676-1.04.118-.321.268-.793.31-1.672.043-.954.054-1.233.054-3.634 0-2.402-.01-2.691-.053-3.635-.043-.879-.183-1.35-.311-1.672a2.77 2.77 0 00-.676-1.04 2.732 2.732 0 00-1.04-.675c-.321-.118-.793-.268-1.672-.311-.954-.043-1.233-.054-3.634-.054-2.402 0-2.691.01-3.635.054-.879.043-1.35.182-1.672.31a2.77 2.77 0 00-1.04.676c-.31.31-.515.611-.675 1.04-.118.322-.268.793-.311 1.672-.043.954-.054 1.233-.054 3.635 0 2.401.01 2.69.054 3.634.043.88.182 1.35.31 1.672.161.418.354.719.676 1.04.31.311.611.515 1.04.676.322.128.804.268 1.672.31zM5.285.054c-.954.042-1.608.193-2.187.418a4.367 4.367 0 00-1.597 1.04A4.53 4.53 0 00.47 3.109C.248 3.677.097 4.331.055 5.296.01 6.25 0 6.561 0 9.006c0 2.444.01 2.755.054 3.709.042.954.193 1.608.418 2.187.225.59.536 1.093 1.04 1.597.503.504.997.804 1.597 1.04.568.225 1.222.375 2.187.418.965.043 1.265.054 3.71.054 2.444 0 2.755-.011 3.709-.054.954-.043 1.608-.193 2.187-.418a4.366 4.366 0 001.597-1.04 4.508 4.508 0 001.04-1.597c.225-.568.375-1.222.418-2.187.043-.965.054-1.265.054-3.71 0-2.444-.011-2.755-.054-3.709-.043-.954-.193-1.608-.418-2.187a4.367 4.367 0 00-1.04-1.597 4.509 4.509 0 00-1.597-1.04C14.334.247 13.68.096 12.715.054 11.75.01 11.45 0 9.005 0 6.561 0 6.25.01 5.285.054z" fill="#000"/></g><defs><clipPath id="clip0"><path fill="#fff" d="M0 0h18v18H0z"/></clipPath></defs></svg>