<svg width="18" height="18" fill="none" xmlns="http://www.w3.org/2000/svg"><g clip-path="url(#clip0)"><path d="M18 2.128a6.55 6.55 0 01-2.127.718c.767-.562 1.35-1.444 1.624-2.509a6.63 6.63 0 01-2.341 1.1C14.48.548 13.514 0 12.463 0 10.42 0 8.775 2.042 8.775 4.542c0 .36.025.705.084 1.034C5.79 5.39 3.076 3.582 1.252.826a5.378 5.378 0 00-.507 2.297c0 1.575.658 2.968 1.639 3.772-.595-.013-1.175-.224-1.667-.558v.052c0 2.207 1.28 4.04 2.957 4.46-.299.1-.63.152-.967.152-.236 0-.475-.018-.7-.078.479 1.8 1.836 3.119 3.45 3.162C4.2 15.292 2.604 16.023.881 16.023c-.302 0-.594-.017-.882-.06C1.635 17.26 3.572 18 5.66 18c6.792 0 10.505-6.921 10.505-12.921 0-.2-.007-.394-.014-.589.731-.64 1.346-1.44 1.849-2.362z" fill="#000"/></g><defs><clipPath id="clip0"><path fill="#fff" d="M0 0h18v18H0z"/></clipPath></defs></svg>